{
  "accessors": [
    {
      "bufferView": 1,
      "componentType": 5126,
      "count": 65532,
      "max": [
        39.9981689453125,
        113.07052612304688,
        39.995582580566406
      ],
      "min": [
        0.0018291175365447998,
        73.07132720947266,
        3.3527612686157227e-05
      ],
      "type": "VEC3"
    },
    {
      "bufferView": 1,
      "byteOffset": 786384,
      "componentType": 5126,
      "count": 65532,
      "max": [
        0.9999778866767883,
        1.0,
        1.0
      ],
      "min": [
        -0.9999778866767883,
        -1.0,
        -1.0
      ],
      "type": "VEC3"
    },
    {
      "bufferView": 0,
      "componentType": 5125,
      "count": 388824,
      "type": "SCALAR"
    },
    {
      "bufferView": 1,
      "byteOffset": 1572768,
      "componentType": 5126,
      "count": 2154,
      "max": [
        30.973535537719727,
        112.8719482421875,
        36.963714599609375
      ],
      "min": [
        15.84052848815918,
        93.36204528808594,
        15.500500679016113
      ],
      "type": "VEC3"
    },
    {
      "bufferView": 1,
      "byteOffset": 1598616,
      "componentType": 5126,
      "count": 2154,
      "max": [
        0.9991355538368225,
        0.9998963475227356,
        0.9991327524185181
      ],
      "min": [
        -0.9993153810501099,
        -0.9999977350234985,
        -0.9992516040802002
      ],
      "type": "VEC3"
    },
    {
      "bufferView": 0,
      "byteOffset": 1555296,
      "componentType": 5125,
      "count": 12270,
      "type": "SCALAR"
    }
  ],
  "asset": {
    "extras": {
      "author": "ameerodeh (https://sketchfab.com/ameerodeh)",
      "license": "CC-BY-4.0 (http://creativecommons.org/licenses/by/4.0/)",
      "source": "https://sketchfab.com/3d-models/ball-0a0c170c836d42869912de1f4f337369",
      "title": "Ball"
    },
    "generator": "Sketchfab-14.47.0",
    "version": "2.0"
  },
  "bufferViews": [
    {
      "buffer": 0,
      "byteLength": 1604376,
      "name": "floatBufferViews",
      "target": 34963
    },
    {
      "buffer": 0,
      "byteLength": 1624464,
      "byteOffset": 1604376,
      "byteStride": 12,
      "name": "floatBufferViews",
      "target": 34962
    }
  ],
  "buffers": [
    {
      "byteLength": 3228840,
      "uri": "scene.bin"
    }
  ],
  "materials": [
    {
      "doubleSided": true,
      "name": "Scene_-_Root",
      "pbrMetallicRoughness": {
        "metallicFactor": 0.0,
        "roughnessFactor": 0.6
      }
    }
  ],
  "meshes": [
    {
      "name": "Object_0",
      "primitives": [
        {
          "attributes": {
            "NORMAL": 1,
            "POSITION": 0
          },
          "indices": 2,
          "material": 0,
          "mode": 4
        }
      ]
    },
    {
      "name": "Object_1",
      "primitives": [
        {
          "attributes": {
            "NORMAL": 4,
            "POSITION": 3
          },
          "indices": 5,
          "material": 0,
          "mode": 4
        }
      ]
    }
  ],
  "nodes": [
    {
      "children": [
        1
      ],
      "matrix": [
        1.0,
        0.0,
        0.0,
        0.0,
        0.0,
        2.220446049250313e-16,
        -1.0,
        0.0,
        0.0,
        1.0,
        2.220446049250313e-16,
        0.0,
        0.0,
        0.0,
        0.0,
        1.0
      ],
      "name": "Sketchfab_model"
    },
    {
      "children": [
        2,
        3
      ],
      "name": "Ball.STL.cleaner.materialmerger.gles"
    },
    {
      "mesh": 0,
      "name": "Object_2"
    },
    {
      "mesh": 1,
      "name": "Object_3"
    }
  ],
  "scene": 0,
  "scenes": [
    {
      "name": "Sketchfab_Scene",
      "nodes": [
        0
      ]
    }
  ]
}
